<?xml version="1.0" encoding="utf-8"?>
<!-- Generator: Adobe Illustrator 19.1.0, SVG Export Plug-In . SVG Version: 6.00 Build 0)  -->
<svg version="1.1" id="Layer_1" xmlns="http://www.w3.org/2000/svg" xmlns:xlink="http://www.w3.org/1999/xlink" x="0px" y="0px"
	 viewBox="155 8.7 76.4 57.3" style="enable-background:new 155 8.7 76.4 57.3;" xml:space="preserve">
<style type="text/css">
	.st0{fill: #8a00ff;}
</style>
<g>
	<path class="st0" d="M156.5,21.8c-0.3,0.5-0.5,0.8-0.5,1c-0.2,0-0.3,0-0.4,0.1c0-0.1-0.1-0.3-0.3-0.6c-0.2-0.3-0.3-0.5-0.3-0.6
		c0-0.5,0.4-0.9,1.2-1.1c0.1-0.1,0.2-0.2,0.3-0.2c0.3,0,0.5,0.2,0.5,0.5C157,21,156.9,21.3,156.5,21.8z M197.6,18.5
		c-1.4,0-2.5,0-3.2-0.1l-0.3,0.2c-0.2,0-0.4-0.1-0.7-0.1c-0.1,0-0.2,0-0.2,0.1h-0.3c-1.1,0-1.8,0-2.2-0.1c0.1,0,0.1,0.1,0,0.1
		c-1.7,0.1-2.7,0.2-3,0.2c-0.2,0-0.5,0-0.8-0.1c-0.3-0.1-0.6-0.1-0.7-0.1c-0.1,0-0.2,0.1-0.3,0.2c-0.1,0.1-0.2,0.2-0.2,0.2
		c-0.1,0-0.2-0.1-0.3-0.2c-0.1-0.1-0.2-0.2-0.3-0.2c-0.1,0-0.1,0-0.1,0.1c0,0.1,0,0.1-0.1,0.1h-0.1c0,0,0-0.1-0.1-0.1
		c-0.1,0-0.2,0.1-0.3,0.2c0-0.4,0-0.6,0.1-0.7l5.5-0.2c0.7-0.2,1-0.3,1.1-0.3c-0.2-0.1-0.3-0.3-0.5-0.6c0,0.2-0.1,0.3-0.2,0.3
		c-0.2,0-0.3-0.1-0.4-0.2c0,0.2,0,0.2-0.1,0.3l-0.3-0.3c-0.1,0-0.2,0.1-0.5,0.2c-0.2,0.1-0.4,0.2-0.4,0.2c-0.1,0-0.1,0-0.1-0.1
		c0-0.1-0.1-0.1-0.2-0.1c-0.3,0-0.7,0-1.3,0.1c-0.6,0.1-1,0.1-1.3,0.1c0,0-0.1,0-0.2-0.1c0-0.1,0.1-0.1,0.1-0.1
		c1.1-0.1,2.1-0.2,3-0.3c0-0.2-0.1-0.2-0.4-0.2c-0.1,0-0.3,0-0.5,0.1c-0.2,0-0.3,0.1-0.5,0.1h-0.7c-0.2,0-0.4-0.1-0.6-0.1h-0.3
		c0.6-0.2,1.1-0.2,1.4-0.3c-2.5,0.2-3.9,0.2-4.4,0.2h-2l-0.4,0.1h-2.9L177,16c-0.3-0.4-0.6-0.6-0.8-0.7c-0.2,0.4-0.4,0.6-0.5,0.6
		v0.9c0,0.4-0.1,0.6-0.3,0.6c-0.2-0.3-0.3-0.6-0.3-0.7c-0.5,0.1-0.9,0.1-1.1,0.2l-0.1-0.3c0.2-0.3,0.3-0.5,0.5-0.5
		c0,0,0.1,0.1,0.3,0.2c-0.2-0.2-0.3-0.3-0.3-0.5l0.1-0.1c0.4-0.3,0.9-0.7,1.3-1c0.5-0.5,0.8-0.9,0.8-1.2c0-0.1,0-0.2-0.1-0.2
		l-0.1-0.1H176c-0.2,0.1-0.4,0.2-0.7,0.1c-0.9,0.9-1.5,1.7-1.9,2.2h-0.5c0,0-0.1-0.2-0.1-0.4c0-0.2-0.1-0.3-0.3-0.4
		c-0.3,0.2-0.7,0.5-0.9,1l-0.4,1.3c-0.2-0.3-0.2-0.5-0.2-0.6c-0.3-0.3-0.5-0.6-0.6-0.7c0.1,0.1,0.1,0.2,0.1,0.3c0,0.1,0,0.2-0.1,0.3
		c-0.1-0.1-0.2-0.3-0.2-0.6c0,0.2,0,0.3-0.1,0.6c-0.5,0.3-0.8,0.6-1,0.7c-0.2,0.3-0.3,0.5-0.4,0.7c-2.3,0-5.3,0.5-9,1.4
		c0,0,0,0.1-0.1,0.1c0,0-0.1,0.1-0.1,0.1v0.3c0.2,0,0.3,0.1,0.3,0.4c0,0.5,0.1,0.7,0.1,0.9l-0.9,0.5c0,0.2,0,0.3,0.1,0.4h-0.5
		c0,0.2,0,0.3-0.1,0.3l1,0.8h0.1c0,0,0-0.1,0.1-0.1c0,0,0,0.2,0.2,0.5c-0.2,0.2-0.4,0.2-0.6,0.2c-0.1,0-0.2-0.1-0.4-0.2
		c-0.2-0.1-0.4-0.2-0.4-0.2c-0.3,0.2-0.5,0.4-0.5,0.6c0,0.2,0,0.3,0.1,0.5c0.4,0.2,0.7,0.4,0.9,0.5c0,0,0.3,0.1,0.7,0.1
		c0.2,0,0.5,0,0.8-0.1c0.4-0.1,0.6-0.1,0.8-0.1c1.2,0.4,1.6,0.6,1.2,0.6c0.3,0,0.5-0.1,0.6-0.1c0.3,0,0.6,0,0.8,0
		c-0.1,0-0.1,0.2-0.1,0.3c0,0.2,0,0.4,0.1,0.7c0,0,0.1,0,0.1,0.1c0,0,0.1,0.1,0.1,0.1l1-0.3c0-0.8,0-1.1-0.1-0.9
		c0.3-0.1,0.6-0.1,0.8-0.1c-0.4,0,0.2-0.2,1.9-0.5c0.1,0.2,0.1,0.4,0.1,0.6l-0.5,4.4h-0.1l-2.1,12.9c-0.2,1.3-0.3,2.5-0.3,3.6
		c0,0.2,0.2,0.4,0.6,0.7V47l-0.1,0.1c0,0-0.1,0-0.2-0.1c0.1,0.2,0.2,0.4,0.1,0.5c-0.1,0.1-0.1,0.2-0.2,0.3c0,0.1,0.1,0.2,0.4,0.3
		c-0.1,0.3-0.1,0.5-0.1,0.6c-0.2,0.3-0.2,0.6-0.2,0.9s0.1,0.4,0.2,0.5c-0.1,0.1-0.2,0.2-0.3,0.2c0.2,0.2,0.3,0.4,0.2,0.7
		c0,0.3-0.1,0.5-0.3,0.6c0.1,0.1,0.2,0.2,0.2,0.3c0,0.2-0.1,0.4-0.3,0.7c0,0.1-0.1,0.3-0.1,0.6c0,0,0-0.1,0.1-0.2
		c0.1,0.2,0,0.4-0.2,0.6c0.1,0.2,0.1,0.3,0.1,0.5c0,0,0,0,0.1,0.2c-0.8,1.7-1.2,3-1.2,3.9c0,0.8,0.4,2.3,1.3,4.5l0.5-6
		c0.1-0.9,0.1-1.5,0.1-1.7c0,0,0.1,0.1,0.2,0.2V56c0,0.6-0.1,1.6-0.2,2.9v3.1c0-0.1,0-0.2,0.1-0.2c0.2,1,0.3,1.3,0.3,1.1
		c0-0.1,0.1-0.1,0.2-0.2l0.2-0.1c0-0.4,0.1-0.7,0.2-0.7c0.1,0.3,0.1,0.8,0.1,1.5c-0.1,0.7,0,1.3,0.1,1.7c0-0.3,0-0.6,0.1-0.7
		c0.1,0.2,0.1,0.4,0.2,0.5c0.3-0.6,0.5-1,0.6-1.3l0.2-6.7c0.1,0.1,0.1,0.2,0.1,0.2c0-0.1,0-0.1,0.1-0.2c-0.1,0-0.1-0.1-0.2-0.2
		c0.2-0.1,0.3-0.3,0.2-0.7h-0.1c-0.1,0.1-0.2,0.2-0.2,0.3c0-0.1-0.1-0.2-0.1-0.5l0.6-5.6v5.6c0-1.3,0.1-2.5,0.3-3.4
		c0-0.4,0-0.7,0-0.9c0.1-0.4,0.2-0.7,0.2-0.8c0-1.3,0.2-2.9,0.6-4.7c0.3-1.8,0.4-3.1,0.5-4c0-0.1,0.2-0.5,0.3-1.2
		c0.2-0.7,0.3-1,0.5-1c0.2,0,0.2,0,0.1,0.1c-0.1,0.3-0.2,0.6-0.2,0.8c0,0.3,0,0.6,0.1,0.8c-0.8,4.5-1.2,8-1.2,10.6
		c0.1-0.3,0.2-0.6,0.4-0.6c-0.3,2.9-0.5,4.7-0.5,5.3c0,0.1,0.1,0.2,0.4,0.2l0.3-2c-0.2,0-0.3-0.1-0.3-0.3c0.1-0.1,0.2-0.2,0.2-0.3
		c0.1-1,0.2-1.5,0.2-1.6l0.5-3c0.2-1.3,0.4-2,0.7-2c0.1,0,0.2,0,0.2,0.1c0-0.2,0-0.3,0.1-0.4c0,1,0,1.9-0.1,2.6l-0.2,1.7
		c0,0.1,0,0.3,0.1,0.6c0,0.3,0.1,0.5,0.1,0.6l2.2-13.6c0.5-3.2,0.9-4.9,1-5.3c0-0.1-0.1-0.2-0.1-0.2c1.5-5.9,2.3-9,2.5-9.4
		c-0.2,0.2-0.3,0.4-0.4,0.6h-0.2c-0.1,0-0.1-0.1-0.2-0.1c-0.5,1.7-0.9,3-1.1,3.9c0-0.1-0.1-0.1-0.1-0.2c0.3-1.9,0.7-3.3,1.1-4.3
		c0.1-0.2,0.3-0.3,0.6-0.3c0.1,0,0.1,0,0.1,0.1h0.1c-0.1,0,0.3-0.1,1.3-0.3h0.5c0.3,0,0.7-0.1,1.4-0.2c0.6-0.1,1.1-0.2,1.4-0.2h2.2
		c1.2,0,1.8-0.2,1.8-0.6c0.1,0,0.3-0.1,0.6-0.1c0.1,0,0.2,0,0.3,0.1c0.2,0,0.3,0.1,0.3,0.1c0.4,0,0.7-0.1,1-0.2l1.4-0.2
		c0.7-0.1,1.1-0.2,1.3-0.3c-0.1,0-0.2,0-0.5-0.1c-0.2-0.1-0.4-0.1-0.5-0.1c-0.1,0-0.1,0-0.1,0.1c0,0.1-0.1,0.1-0.1,0.1h-3.3
		c-0.2-0.1-0.2-0.1-0.3-0.1c4.1-0.7,7.7-1.1,10.8-1.2l0.1-0.1c-0.2-0.3-0.5-0.4-0.7-0.4c-0.3,0-0.6,0.1-0.9,0.3c0.2,0,0.2,0,0.1,0.1
		c-0.3,0-0.4,0-0.5,0.1c0-0.1,0-0.1,0-0.2c0.1-0.1,0.1-0.1,0.1-0.2c-0.2,0.2-0.3,0.3-0.5,0.3c-0.2-0.1-0.2-0.2-0.2-0.3
		c0,0-0.2,0.1-0.3,0.3c-0.1-0.2-0.2-0.3-0.4-0.3c-0.1,0.1-0.1,0.2-0.1,0.2c0.1-0.1,0.2-0.1,0.2,0c-0.2,0.2-0.4,0.2-0.6,0.2
		c-0.1,0-0.2-0.1-0.3-0.2c0,0,0-0.1,0.1-0.2c0.1,0,0,0.1-0.2,0.3c-0.2-0.2-0.2-0.3-0.3-0.3c-0.4,0.2-0.6,0.2-0.5,0.2
		c-0.1,0-0.1,0-0.2-0.1h-0.3c-0.1,0-0.2,0-0.3,0.1c-0.1,0.1-0.2,0.1-0.3,0.1c-0.8,0-1.6-0.1-2.3-0.2c0,0,0-0.1,0.1-0.1
		c0,0,0.1-0.1,0.1-0.1c2.7-0.1,4.8-0.2,6.4-0.3c0.3-0.1,0.4-0.1,0.5-0.2c-0.1-0.4-0.1-0.7-0.1-0.9h-2c0.2-0.2,0.4-0.3,0.6-0.3
		c0.4-0.1,1-0.2,1.8-0.2c0.1,0,0.1,0,0,0.1c0,0.1,0.1,0.2,0.2,0.2c0.1,0,0.1,0,0.1-0.1c0-0.1,0-0.1,0.1-0.1c0.7,0,1.1,0.1,1.4,0.2
		V18.5z M161.5,52.5c0,0.2,0.1,0.3,0.3,0.3c0.3-1.2,0.5-2,0.4-2.3C161.7,52.2,161.5,52.9,161.5,52.5z M164.3,55.4v-0.5h0.2v0.5
		H164.3z M166,63.3h-0.2v1h0.2V63.3z M166.3,61.9h-0.2v0.2h0.2V61.9z M167,55.1c-0.1,1.6-0.3,3.1-0.5,4.3c-0.1,0.2-0.1,0.3-0.2,0.3
		c0,0.4-0.1,0.7-0.1,0.7l0.1,1.3c0,0.2,0.1,0,0.4-0.5c-0.2-0.3-0.3-0.6-0.3-0.7c0-0.1,0-0.1,0.1-0.2c0.2,0.2,0.2,0.4,0.2,0.5
		c0.2-1.9,0.3-3.3,0.4-4.2c0-0.4,0-0.6-0.1-0.7l0.1-0.2C167.1,55.4,167.1,55.2,167,55.1z M168,14l-0.5,0.2c-0.5-0.2-0.7-0.3-0.6-0.3
		l-0.2,0.3c0,0.4,0.2,0.6,0.7,0.6c0.2,0,0.5-0.2,0.8-0.6L168,14z M166.9,49.2l-0.1,1h0.1l0.1-1H166.9z M167.1,48.9h-0.2l0.1-0.5h0.2
		L167.1,48.9z M167.1,54.7c0,0-0.1-0.1-0.1-0.2c0,0.1,0,0.2-0.1,0.3l0.3,0.3l0.5-5.7L167.1,54.7z M167.7,49.1v-0.3h0.2v0.3H167.7z
		 M168.4,15.4c-0.1,0.2-0.2,0.3-0.2,0.5c0,0.2,0,0.3,0.1,0.5c0.3-0.3,0.4-0.5,0.4-0.7C168.7,15.5,168.6,15.4,168.4,15.4z M169.1,58
		H169v0.5h0.1V58z M169.2,56.6H169v0.3h0.2V56.6z M169,57.4v-0.3h0.2v0.3H169z M169.1,48v-0.2h0.1V48H169.1z M169.1,55.8v-0.9h0.1
		v0.9H169.1z M169.3,53.6l-0.1,0.7h0.2l0.1-0.7H169.3z M169.9,17.4h-0.5c0.2-0.2,0.4-0.3,0.6-0.4C169.9,17.1,169.9,17.3,169.9,17.4z
		 M169.8,55.2h-0.1v0.3h0.1V55.2z M170.1,55.9h-0.2v0.4h0.2V55.9z M170.2,54.1l-0.1,0.5h0.2l0.2-0.5H170.2z M170.2,13.3
		c0.2,0.3,0.3,0.5,0.3,0.6c0.5-0.7,0.8-1.2,0.9-1.7C170.8,12.7,170.4,13.1,170.2,13.3z M170.4,53.1l-0.2,0.7h0.2l0.1-0.7H170.4z
		 M170.7,43.2l-0.1,0.4h0.2l0.1-0.4H170.7z M170.8,53.3l-0.2,1.7h0.2l0.2-1.7H170.8z M170.8,43.1h-0.1l0.1-0.9h0.2L170.8,43.1z
		 M171.2,41.4c-0.1,0.3-0.2,0.5-0.3,0.6c0-0.3,0.1-1.2,0.3-2.7c0.1-0.8,0.2-1.2,0.5-1.3C171.4,39.1,171.3,40.3,171.2,41.4z
		 M171,51.6h-0.1v0.3h0.1V51.6z M171.2,50.4H171v0.3h0.2V50.4z M171.6,47.4l-0.2-0.2l0.1-0.1l0.2,0.2L171.6,47.4z M171.5,37.8v-0.4
		h0.2v0.4H171.5z M176.1,9.6c-0.7,0-1.2,0.8-1.4,2.3c0.7,0.5,1.1,0.7,1.3,0.7c0.2,0,0.3-0.1,0.3-0.4c0.4-0.1,0.7-0.2,1-0.4
		c0.3-0.5,0.4-1,0.4-1.4C176.7,9.9,176.2,9.6,176.1,9.6z M175.1,29.3V29h0.2v0.3H175.1z M181.5,22.6v-0.1h0.9v0.1H181.5z
		 M183.1,22.6c0-0.1,0.1-0.2,0.2-0.3l0.4,0.1L183.1,22.6z M183.5,23.2v-0.2L184,23v0.1L183.5,23.2z M184.3,22.4v-0.1l0.2-0.1
		l0.1,0.1L184.3,22.4z M184.3,23.2V23h1v0.2H184.3z M185,18.4h-0.2v0.2h0.2V18.4z M184.9,22.3v-0.2h0.9v0.2H184.9z M185.6,18.4h-0.4
		v0.2h0.4V18.4z M188.2,18.8v-0.2h0.7v0.2H188.2z M189.6,17c0,0.2,0,0.2,0.1,0.2c0.2,0,0.4,0,0.6-0.1c0.2,0,0.4-0.1,0.5-0.1
		C190.4,17.2,190,17.1,189.6,17z M191.1,17l-0.1,0.1l0.2,0.1l0.1-0.1L191.1,17z M191,19.6l0.1-0.2l0.3,0.2H191z M191.9,19.5v-0.1
		l0.5-0.1v0.1L191.9,19.5z M192.8,19.4v-0.1l0.5,0.1v0.1L192.8,19.4z M193.2,19.9h-0.4V20h0.4V19.9z M195,19.9h-0.6V20h0.6V19.9z
		 M196.9,20.6l-0.2-0.2l0.1-0.1l0.1,0.1L196.9,20.6z"/>
	<path class="st0" d="M227.7,41.9c-0.2,0-0.4,0.2-0.7,0.5h-0.3c-0.2,0-0.2-0.1-0.2-0.2c0-0.1,0-0.1-0.1-0.1c0,0.1-0.2,0.2-0.5,0.3
		c0.1,0,0.2,0.1,0.3,0.1c-0.1,0-0.2,0.1-0.3,0.2c0,0.1,0.1,0.2,0.1,0.4c0,1.1-1.4,2.8-4.2,4.9c-3.9,3.1-7.5,5.5-10.8,7.3h-0.4
		l0.2-0.3c1.3-0.8,2.3-1.5,2.9-2.1c0.1,0,0-0.1-0.1-0.1c-0.1,0-0.6,0.3-1.6,0.8c-1,0.5-1.6,0.8-1.9,0.9c0.1-0.1,0.1-0.2,0.1-0.3
		c-1.3,0.8-3.3,1.9-6.1,3.4c0,0-0.1,0-0.1,0.1c0.1,0.3,0,0.5-0.2,0.6c0,0,0.1,0.1,0.1,0.1c0.1,0,0.1,0,0.2-0.1
		c-0.7,0.4-1.2,0.7-1.8,0.9c-1.7,0.5-2.8,0.7-3.3,0.7c-0.1,0-0.2,0-0.3-0.1c-0.2-0.1-0.3-0.1-0.3-0.1c-0.1,0-0.2,0-0.3,0.1
		c-0.1,0-0.2,0.1-0.3,0.1c-0.3,0-0.6,0-1.1,0.1c-0.5,0.1-0.9,0.1-1.1,0.1c-1.4,0-2.6-0.4-3.6-1.2c-0.4-0.3-0.9-0.9-1.5-1.6
		c-0.8-1-1.3-1.6-1.4-1.7c0.1-0.3,0.2-0.4,0.3-0.4c0.2,0,0.5,0.2,0.7,0.6c1,1.5,1.8,2.4,2.4,2.9l1,0.5l0.5-0.1
		c-0.1-0.1-0.3-0.2-0.5-0.4c0.2,0.1,0.5,0.3,0.9,0.7c0,0,0.1,0,0.1-0.1c0.1-0.1,0.1-0.1,0.3-0.1c0.1,0,0.2,0,0.4,0.1
		c0.2,0.1,0.3,0.1,0.4,0.1c-0.2,0,0.2-0.2,0.9-0.6c-0.6-0.1-1.6-0.4-2.8-0.8c-0.1,0-0.4-0.3-0.9-0.8c0.1,0.1,0.2,0.1,0.3-0.1
		c0,0.2-0.1,0-0.2-0.3c-0.3,0.2-0.4,0.2-0.3,0.2c-0.3,0-0.8-0.3-1.4-0.8c0-0.1,0.1-0.2,0.1-0.4c-0.1-0.1-0.5-0.4-1.2-1
		c-0.7-0.6-1.1-0.9-1.1-0.9c-0.1,0-0.1,0.1-0.1,0.2c-0.1-0.3-0.4-0.7-0.9-1c0-0.2,0-0.4-0.1-0.6c-1.6-2.7-2.4-5.4-2.5-8
		c0.7,1.8,1.1,3.2,1.3,4.3c0.2,0.4,0.6,1,1,1.7c0-0.1,0.1-0.3,0.1-0.7c0-0.4-0.2-0.8-0.5-1.3c-0.1-0.1-0.1-0.3-0.1-0.6
		c0-0.1,0-0.2-0.1-0.3c-0.1-0.1-0.1-0.2-0.1-0.3c-0.3-1.2-0.5-2-0.5-2.5l-0.2-0.2c0-3-0.1-4.3-0.2-3.8c0.1-0.1,0.2-0.2,0.2-0.5
		c0-0.2-0.2-0.5-0.5-0.7c0.1-0.1,0.2,0,0.4,0.1c0-0.2,0.2-1.5,0.6-4c-0.2,0-0.3,0.1-0.3,0.3c0-0.3,0.1-0.6,0.3-0.9
		c0.2,0,0.4-0.3,0.5-0.8c0-0.1,0-0.1-0.1-0.1v-0.6c0.7-0.1,0.9-0.8,0.8-2.1l-0.1-0.1l0.8-1.8c-0.3,0.3-0.7,0.9-1.2,1.6
		c-0.9,1.9-1.5,3.6-2,5.1c-0.3,1-0.6,2.4-0.7,4.1v-2.1c0-0.2,0.1-0.2,0.1,0c-0.1,0.2-0.2,0.5-0.4,1.1c0.8-3.8,1.8-7.1,3.2-9.7
		l-0.1-0.4c-0.2,0.2-0.4,0.4-0.6,0.6c0.4-0.4,1-1.1,1.8-2c0.6-0.9,1.3-1.9,2.1-2.9c1.8-2.3,3.8-4.2,6.1-5.7c2.7-1.8,5.3-2.7,7.8-2.8
		c0.3,0,0.8,0,1.4-0.1s1.1-0.1,1.4-0.1c-0.5,0,0,0.1,1.4,0.3c1.8,0.3,2.8,0.5,2.9,0.6c0.4,0.3,1,0.8,1.8,1.4c0,0.1,0.1,0.1,0.1,0.1
		h0.1c-0.1-0.3-0.3-0.7-0.6-0.9c0.3,0.2,0.8,0.5,1.5,0.9c0,0.1-0.2,0.3-0.6,0.6l0.3,0.5c-0.1,0.2,0,0.4,0.2,0.7c0,0.1,0,0.3-0.1,0.5
		c0.2,0.2,0.3,0.2,0.4,0.2c0-0.1,0.1-0.2,0.2-0.3c0.2,0.2,0.4,0.4,0.7,0.7c0.2,0,0.3,0.1,0.6,0.2c0,0.2,0.2,0.3,0.7,0.6
		c0.2,0.2,0.9,0.3,2.1,0.6c-0.2,0-0.4,0-0.6-0.1c-0.3,0-0.5-0.1-0.6-0.1l-0.9-0.1c-0.1,0-0.2,0-0.5,0.1c-0.2,0.1-0.4,0.1-0.5,0.1
		c-0.2-0.1-0.9-0.4-2.1-0.9c-0.1,0-0.2,0.1-0.3,0.2c0,0.1,0.1,0.2,0.2,0.2c-0.4-0.1-0.6,0.4-0.7,1.4c-0.2,0.1-0.6,0.3-1,0.5
		l-0.3-0.3l-0.7,0.1c0,0.3,0.2,0.5,0.5,0.5h0.6v0.1c0,0,0.2,0.1,0.6,0.1c0.1-0.1,0-0.2-0.1-0.2c0.3,0,0.6-0.1,0.8-0.2
		c-0.1,0.2-0.3,0.3-0.6,0.5v0.2c-1.9,0.3-3.2,0.4-4,0.4c0,0-0.3-0.2-0.9-0.5c-0.6-0.3-0.9-0.5-1-0.5c-1.6,0-2.8,0.2-3.6,0.5
		c-1,0.4-2.3,1.5-4.1,3.2c-0.2,0.2-0.4,0.6-0.7,1.1c-0.2,0.1-0.3,0.2-0.6,0.3c-1,1-1.7,2.2-2.2,3.5c-0.1,0.3-0.3,0.5-0.5,0.5
		l-0.2-0.1c0,0.1,0,0.2,0.1,0.3h-0.1c0,0.1-0.5,1-1.3,2.7c0.3-1.6,1.1-3.4,2.4-5.6c0.2-0.2,0.6-0.6,1-1.1c0.3-0.5,0.8-1.3,1.4-2.2
		c0.2-0.3,0.7-0.8,1.4-1.6c0,0-0.1-0.1-0.2-0.1c0,0.1-0.3,0.3-0.9,0.7c-2.6,2-4.7,4.6-6.1,7.8c-0.2,0.4-0.4,1-0.5,1.8
		c0,0-0.1,0-0.1,0.1c0,0.1,0,0.1-0.1,0.1c-0.4,0.5-0.6,1.1-0.6,1.8V39l-0.2-0.2c-0.1,0.2-0.1,0.4-0.1,0.6c0,0.1,0,0.2,0.1,0.3
		c-0.1-0.1-0.2-0.1-0.2-0.1c-0.1,0.5-0.3,1.1-0.6,2c0,0.1,0.1,0.2,0.2,0.3l-0.2,0.4l-0.1,0.6c0,0.2,0,0.5,0.1,0.8
		c-0.2,0.3-0.2,0.4-0.2,0.3c0,0.2,0.1,0.5,0.3,0.9c0-0.1-0.1-0.1-0.2-0.1l-0.2,0.2c0.2,0.3,0.3,0.6,0.3,0.8c0.2,0.7,0.7,1.5,1.6,2.6
		c-0.5-0.5-0.6-0.7-0.5-0.7c-0.1,0-0.2,0-0.2,0.1c0,0.1-0.1,0.1-0.1,0.1c-0.1-0.2-0.2-0.4-0.3-0.6c-0.3-0.2-0.4-0.3-0.5-0.3
		c-0.1,0-0.2,0-0.2,0.1c0.1,0.4,0.3,1,0.6,1.7c0.3,0.4,0.7,0.9,1.3,1.4c0.4,0.1,1.1,0.3,2,0.6c0.2,0.2,0.6,0.4,1.1,0.7
		c0.2,0,0.3,0.1,0.5,0.1l-0.1,0.1c0,0,0.2,0.1,0.3,0.1c0.7,0,1.5-0.1,2.6-0.4c0-0.1-0.2-0.2-0.3-0.3h-0.1l-0.1-0.1
		c0-0.5-0.2-0.9-0.4-1.2l1.6,1.3h0.2c0.1,0,0.1-0.1,0.1-0.2c0.2,0.2,0.3,0.3,0.5,0.3c0.1,0,0.2,0,0.2-0.1c0.1,0,0.1-0.1,0.2-0.1
		l0.2-0.2l0.2,0.2c0.5-0.1,1.1-0.4,2-0.7c0.3,0.1,1.2-0.2,2.8-1.1c-0.2,0.2-0.5,0.4-1,0.9c0.1,0.1,0.2,0.2,0.4,0.2l2.2-1.1
		c-0.1,0-0.1-0.1-0.2-0.1c0-0.1,0.1-0.2,0.2-0.3c0.1-0.2,0.2-0.2,0.2-0.3v0.6h0.3c0.1-0.1,0.1-0.2,0.1-0.4c0.1,0,0.4-0.1,1-0.3
		l4.9-3.2c0,0.1,0,0.1,0.2,0.1c0-0.1,0.2-0.3,0.6-0.6c0,0-0.1-0.1-0.2-0.1c0,0-0.1,0-0.3,0.1c-0.2,0.1-0.3,0.1-0.4,0.1v-0.3
		c1-0.5,1.6-1,2.1-1.3c-0.3,0-1-0.1-2.2-0.1c-0.1,0-0.2,0-0.3,0.1c-0.1,0.1-0.2,0.1-0.3,0.1c-0.3,0-1.4,0.3-3.4,0.9
		c-0.1,0.1-0.1,0.1-0.1,0.2c0,0,0.1,0.1,0.2,0.1c-0.1,0.1-0.2,0.1-0.3,0.1c-0.1,0-0.2-0.1-0.3-0.2c0,0-0.1,0.1-0.1,0.3
		c-0.2-0.1-0.5,0-0.7,0.1H208c0,0,0-0.1,0.1-0.2c0,0-0.1-0.2-0.3-0.5c-0.3,0.1-0.5,0.3-0.6,0.5c0,0.1,0.1,0.1,0.3,0.1v0.5
		c-0.2,0.2-0.4,0.3-0.7,0.3c-0.5,0-0.7-0.1-0.7-0.4c0-0.1,0.1-0.2,0.2-0.5c0.1-0.2,0.2-0.4,0.2-0.6c0.2-0.1,0.8-0.4,1.7-1
		c0,0,0-0.1-0.1-0.2c-0.3,0-0.8,0.2-1.5,0.3l-0.2-0.2c-0.3,0.1-0.8,0.3-1.4,0.5c-0.9,0.9-1.5,1.4-1.7,1.4c-0.1,0-0.1-0.1-0.1-0.3
		c0-0.2,0-0.4,0-0.4c0,0-0.1,0-0.2,0.1l0.1,0.3c0,0-0.2-0.1-0.5-0.1c0,0,0-0.1,0.1-0.3c0.1-0.2,0.1-0.2,0.1-0.3c0-0.1,0-0.1-0.1-0.2
		c-0.1,0-0.2,0.1-0.4,0.2c0,0,0.1-0.1,0.1-0.2v-0.2c0.1-0.1,0.3-0.3,0.7-0.6c-0.1-0.1-0.2-0.2-0.3-0.2c-0.2,0-0.2,0-0.2,0.1
		s0,0.1,0.1,0.1c0,0-0.2,0.1-0.6,0.1c0-0.1,0-0.3,0.1-0.5c0-0.2,0-0.4,0-0.5l-0.2,0.2c-0.1,0-0.2-0.2-0.3-0.6L202,42l0.2-0.2
		c-0.1-0.1-0.2-0.2-0.5-0.2l-0.3-0.3c-0.4,0.3-0.9,0.7-1.4,1.4c-0.7,0.8-1,1.3-1,1.6h-0.2c-0.1,0-0.2-0.1-0.2-0.1c0,0,0-0.1,0.1-0.2
		c0-0.1,0.1-0.2,0.1-0.3c-0.1-0.1-0.2-0.1-0.4-0.1c1.1-1.7,1.7-2.6,1.8-2.7c0-0.1-0.1-0.3-0.3-0.6c-0.2-0.3-0.3-0.5-0.3-0.6
		c0-0.8,0.7-1.8,2.1-2.9c0.4-0.2,0.9-0.5,1.6-0.9c0.3-0.3,0.5-0.4,0.6-0.4c0.1,0,0.1,0,0.1,0.1c0,0,0,0.1,0.1,0.1
		c0.1,0,1-0.3,2.5-0.9c0,0.2,0.1,0.3,0.3,0.3c0.1,0,0.4-0.1,0.8-0.2v-0.1c-0.1-0.1-0.3,0-0.6,0.2c-0.1-0.1-0.1-0.2-0.1-0.3
		c0.8,0,1.2,0,1.3,0.1c0.1-0.1,0.6-0.2,1.7-0.5c0.7-0.2,2-0.3,4.1-0.5c0.4,0,1-0.1,1.8-0.1c0.2,0,0.3-0.1,0.2-0.2
		c0.3,0,0.7,0.1,1.3,0.1s1.3,0,2.2-0.1c-0.9-0.2-1.7-0.3-2.4-0.3c0,0-0.1,0-0.2,0.1c-0.1,0-0.2,0.1-0.2,0.1h-0.3
		c-0.1,0-0.3-0.1-0.5-0.1c0-0.1,0.2-0.2,0.3-0.3c0.4-0.1,0.7-0.2,0.7-0.2c0.1,0,0.3,0,0.5,0.1c1,0,1.9,0,2.7,0
		c0.2,0.1,0.6,0.2,1.1,0.2c0.5,0,0.9-0.1,1.4-0.3v0.4c0,0,0.1,0,0.2,0.1c0.1,0,0.1,0.1,0.2,0.1c0-0.1,0-0.2-0.1-0.4
		c0-0.2-0.1-0.3-0.1-0.4c0-0.5,0.4-0.7,1.3-0.7c0.3,0,0.5,0.1,0.8,0.3c0,0.2-0.2,0.3-0.5,0.5l-0.8,0.5c0.2,0.5,0.4,0.7,0.7,0.7
		c0.1,0,0.2,0,0.4-0.1c0.2-0.1,0.3-0.1,0.4-0.1c0.3,0,0.7,0.1,1.2,0.4c0.5,0.2,0.8,0.5,0.8,0.7v0.6h-0.5c0,0-0.1,0.1-0.1,0.2
		c0,0.1,0.1,0.3,0.2,0.6c0.1,0.3,0.2,0.5,0.2,0.6c0,0.1-0.1,0.2-0.3,0.4c-0.2,0.2-0.3,0.4-0.3,0.4c0,0.3,0.2,0.4,0.7,0.4
		c0,0.3-0.1,0.5-0.3,0.8c0,0.1,0.2,0.1,0.4,0.1c0,0.1,0.1,0.2,0.2,0.3c-0.3,0.3-0.6,0.5-0.8,0.5c-0.1,0-0.1,0-0.1-0.1
		c0,0,0-0.1-0.1-0.1c-0.1,0-0.2,0-0.1,0.1c0.1,0.1,0.1,0.1,0,0.1c-0.3,0-0.4,0-0.3-0.1c0.2,0.3,0.3,0.5,0.5,0.5h0.2
		c0,0,0-0.1,0.1-0.1c0,0.2,0,0.4-0.1,0.4c0.2,0.2,0.6,0.5,1.1,0.9V41.9z M184.3,40.4l-0.1,0.3l-0.2-0.1l0.2-0.3L184.3,40.4z
		 M184.3,42.5v-0.3h-0.2v0.3H184.3z M185.6,39.1l-0.2,0.2l-0.1-0.1l0.1-0.2L185.6,39.1z M185.7,45.1l-0.1,0.1l-0.2-0.2l0.1-0.1
		L185.7,45.1z M185.8,45.7l-0.1-0.3l-0.2,0.1l0.1,0.2H185.8z M187.2,32.6l-0.2-0.1l-0.1,0.1l0.2,0.1L187.2,32.6z M188.3,52
		c-0.1-0.3-0.3-0.7-0.7-1l-0.2,0.1C187.6,51.3,187.9,51.6,188.3,52z M196.8,20.4c-0.4,0.2-0.8,0.6-1.3,1.1c-0.1-0.1-0.2-0.1-0.2-0.1
		l-0.6,0.6l-0.2-0.2l-0.9,0.7c-1.5,1.1-2.9,2.7-4.3,4.9c-0.5,0.8-0.9,1.4-1.1,1.8c0.3-0.3,0.4-0.4,0.3-0.4c0.1,0.1,0.1,0.2,0.1,0.4
		c0,0.2-0.3,0.9-1,2.1c0,0.1,0.1,0.2,0.1,0.3c0.2-0.3,0.4-0.8,0.6-1.3c0.3-0.4,0.7-1,1.1-1.7c0.1-0.2,0.1-0.3,0-0.4
		c1.1-1.4,3-3.5,5.5-6.3C195.5,21.6,196.1,21,196.8,20.4z M188.1,54.2v-0.3h-0.2v0.3H188.1z M191.2,45.1v-0.2h-0.2v0.2H191.2z
		 M191.4,42.2h-0.2v-0.4h0.2V42.2z M191.7,39.3l-0.1,0.1l-0.2-0.2l0.1-0.1L191.7,39.3z M192.4,56.4c0-0.1-0.1-0.3-0.2-0.5
		c-0.1,0-0.3,0-0.5,0C191.8,56,192,56.2,192.4,56.4z M193.9,39.6c-0.1,0.3-0.3,0.5-0.6,0.8c0.1,0.2,0.1,0.4-0.1,0.6h-0.5v-0.5
		c0.2-0.2,0.5-0.6,0.9-1H193.9z M193.1,23.5h-0.2v-0.2h0.2V23.5z M193.9,50c0-0.4-0.2-0.6-0.6-0.6c-0.1,0-0.1,0-0.2,0.1l-0.1,0.1
		c0.1,0.7,0.2,1,0.2,0.9h0.6C193.9,50.2,193.9,50.1,193.9,50z M197.5,57.3c-0.1,0-0.2,0-0.4-0.1h-0.3c-0.1,0-0.3-0.1-0.5-0.3
		c-0.3-0.2-0.5-0.3-0.5-0.3l-0.3,0.1c0.1,0,0.2,0.2,0.3,0.5c0.4,0.2,0.7,0.2,0.7,0.2l0.3-0.2C197.2,57.2,197.4,57.2,197.5,57.3z
		 M197.2,20.1L197,20l-0.2,0.2l0.1,0.1L197.2,20.1z M197.9,57.7v-0.2h-0.3v0.2H197.9z M200,58.1c-0.4,0.2-0.8,0.3-1.1,0.3h-0.5
		C198.7,58.4,199.3,58.3,200,58.1z M203.3,58c-1.5,0.6-2.3,0.9-2.2,0.9h-0.6v-0.3c-0.2-0.1-0.4-0.1-0.7-0.1l0.2-0.1
		c0.1-0.1,0.2-0.1,0.3-0.1c0.1,0,0.1-0.1,0-0.2c0.2,0,0.4,0,0.7,0.1c0.3,0.1,0.5,0.1,0.7,0.1C201.9,58.3,202.5,58.2,203.3,58z
		 M200.5,57.2h-0.3l0.1,0.1c-0.2,0.1-0.3,0.2-0.5,0.2c0,0.1,0,0.2,0.1,0.3c0.1-0.1,0.2-0.2,0.4-0.2c-0.1,0-0.2,0-0.2-0.1
		C200.2,57.5,200.3,57.4,200.5,57.2z M200.8,40.1c0,0-0.1,0.1-0.2,0.2c-0.1,0.1-0.1,0.2-0.2,0.2l-0.2-0.2
		C200.3,40.2,200.5,40.2,200.8,40.1z M201.1,50.2c-0.2,0.1-0.4,0.3-0.6,0.5c0,0,0.1,0,0.2,0.1C200.7,50.9,200.9,50.7,201.1,50.2z
		 M202.8,57.2c-0.1,0-0.2-0.1-0.3-0.2l-1,0.3C202.2,57.3,202.6,57.3,202.8,57.2z M206.1,55.8c-1.1,0.5-2.2,0.8-3.2,1.1
		c0,0.1,0.1,0.2,0.1,0.3l0.2-0.1c0.2,0,0.6-0.2,1.1-0.6l0.3,0.3C204.7,56.9,205.2,56.5,206.1,55.8z M203.9,53.1h-0.3v-0.2h0.3V53.1z
		 M204.5,50.3l-0.1-0.2l-0.2,0.1v0.2L204.5,50.3z M210.3,55.5c0,0-0.1,0-0.2-0.1c-0.1,0-0.2-0.1-0.2-0.1c-0.2,0.2-0.7,0.6-1.7,1.1
		c-0.9,0.6-1.5,0.8-1.7,0.8c-0.2,0-0.2,0-0.2-0.1v0.2c-0.2,0.2-0.9,0.6-1.9,1.1h0.3c0.8-0.2,1.8-0.7,2.9-1.4L210.3,55.5z
		 M207.4,54.6h-0.3c-0.3,0.1-0.7,0.3-1.3,0.6c0-0.1-0.1-0.1-0.1-0.2c0.1,0,0.2-0.1,0.3-0.1c0-0.1-0.1-0.1-0.2-0.2
		c-0.1,0.2-0.2,0.3-0.5,0.5c0.5,0,1-0.1,1.4-0.2C206.9,55,207.1,54.9,207.4,54.6z M207,55.4c-0.2,0.1-0.4,0.2-0.7,0.3h0.3L207,55.4z
		 M207.6,55.2c-0.2,0-0.2-0.1-0.2-0.2c0,0-0.1,0.1-0.2,0.1c-0.1,0.1-0.2,0.1-0.2,0.1C207.3,55.3,207.5,55.3,207.6,55.2z M208,55.1
		h-0.4V55h0.4V55.1z M207.9,51.7h-0.2l-0.1,0.2l0.2,0.1L207.9,51.7z M208.2,54l-0.1-0.2l-0.5,0.2v0.2L208.2,54z M211.8,51.8
		c-0.3,0.1-0.8,0.2-1.3,0.5c0.1,0.2,0,0.3-0.2,0.4c-0.5,0.2-1.1,0.6-1.7,1.1l0.3-0.3c0,0.1,0,0.2,0.1,0.4c0,0,0.1-0.1,0.1-0.1
		c0.1,0,0.1,0,0.1-0.1c0,0,0.1,0.1,0.2,0.2c-0.3,0-0.8,0.3-1.4,0.9c0.2,0.1,0.4,0,0.6-0.1c-0.1-0.1-0.1-0.2-0.1-0.3
		c0.1,0.1,0.2,0.1,0.3,0.1c0.2,0,0.6-0.3,1.3-0.9c0-0.2,0.1-0.3,0.2-0.5c0.2-0.2,0.2-0.4,0.2-0.4s0-0.1,0.1-0.2
		C211,52.4,211.4,52.1,211.8,51.8z M211.9,14.3c-0.2,0.2-0.4,0.2-0.7,0.2c0.1,0.6,0,0.9-0.4,0.9h-0.2c0,0-0.1,0.1-0.2,0.1
		c-0.3,0-0.6-0.3-1-0.9c-0.4-0.6-0.6-1.1-0.6-1.4v-0.3c0.7,0.1,1.4,0.2,2,0.3C211.5,13.4,211.9,13.8,211.9,14.3z M209.9,53.5h-0.3
		c0,0,0,0.1-0.1,0.2C209.6,53.7,209.8,53.6,209.9,53.5z M212,48.9c-0.1,0.2-0.2,0.4-0.4,0.7c-0.2,0.1-0.6,0.2-1,0.4
		c-0.1,0-0.2,0-0.3,0c0-0.2,0-0.3,0.1-0.3c0,0,0,0.1,0.2,0.1C210.4,49.7,210.9,49.4,212,48.9z M211,24.3v-0.2h-0.3v0.2H211z
		 M211.6,49.4l-0.3,0.1v-0.1l0.2-0.1L211.6,49.4z M212.3,49l-0.2,0.3l-0.1-0.1l0.2-0.3L212.3,49z M220.2,45.8
		c-0.5,0.3-1.1,0.7-2.1,1.3c-0.3,0.3-0.6,0.6-1,0.9c-0.2,0.1-0.7,0.3-1.7,0.7c0.1,0.2,0,0.4-0.3,0.6c-0.5,0.2-0.8,0.4-0.9,0.5
		c0,0.2-0.2,0.4-0.3,0.6l-0.2-0.1v-0.1c-0.2,0.2-0.4,0.3-0.6,0.5c0,0.1-0.2,0.3-0.5,0.5l-0.2,0.5c0.3-0.1,0.6-0.3,0.9-0.7
		c0.1,0.1,0.2,0.2,0.1,0.2c0.3,0,1.2-0.5,2.7-1.6c-0.1-0.1-0.1-0.2-0.1-0.3l0.1-0.1c0.1-0.1,0.2-0.2,0.4-0.2h0.1l-0.4,0.4l1-0.5
		v-0.3c0.2-0.2,0.4-0.5,0.9-0.7c0.1,0,0.2,0,0.2-0.1c0.3-0.3,0.5-0.5,0.6-0.5C219.1,47,219.6,46.5,220.2,45.8z M214.3,51.7
		c-0.1-0.1-0.2-0.2-0.2-0.3c-0.3,0.1-0.5,0.3-0.7,0.5c0.2-0.1,0.3-0.2,0.4-0.2c0.1,0,0.1,0,0.2,0.1c-0.2,0.1-0.4,0.3-0.7,0.6
		C213.9,52.2,214.2,52,214.3,51.7z M214.3,23.4c-0.2,0.2-0.4,0.5-0.7,1c0-0.2,0-0.7-0.2-1.4h0.3C213.9,23.1,214.1,23.3,214.3,23.4z
		 M214.1,52.7l-0.3,0.2l-0.1-0.2l0.3-0.2L214.1,52.7z M215.5,50.4c-0.4,0.3-0.8,0.5-1.4,0.8c0,0.1,0,0.2,0.1,0.3
		c0.2,0,0.3-0.1,0.5-0.3v0.5c0.1-0.2,0.2-0.2,0.3-0.2c0-0.3,0-0.5,0.1-0.6c0.1,0.1,0.2,0.1,0.2,0.1
		C215.5,51.1,215.5,50.9,215.5,50.4z M214.8,20.9c0-0.1-0.1-0.2-0.2-0.4c0.2,0,0.2-0.1,0.2-0.2V20.9z M216.6,46
		c-0.5,0.5-1.1,0.9-1.7,1.2c0-0.4,0.3-0.7,0.9-1c0.2-0.1,0.4-0.3,0.6-0.5C216.5,45.8,216.6,45.9,216.6,46z M215.5,42.9l-0.4-0.1v0.1
		l0.3,0.1L215.5,42.9z M215.5,51.7l-0.1-0.2l-0.3,0.2l0.1,0.2L215.5,51.7z M215.8,49.5l-0.5,0.3l-0.1-0.2l0.5-0.3L215.8,49.5z
		 M218.7,45.6c-0.2,0-0.4,0.1-0.7,0.3l-2.6,2.1c0.2,0.2,0.5,0.1,0.8-0.2C217.1,47.1,217.9,46.4,218.7,45.6z M219.1,25.7
		c-0.5,0-1,0.2-1.6,0.5c-0.2,0-0.4-0.2-0.6-0.5c-0.2,0-0.4,0-0.7-0.1c-0.1-0.2,0-0.4,0.1-0.6c-0.6-0.8-0.8-1.2-0.8-1.3h0.5
		c0.1,0,0.2,0.1,0.5,0.3c0.3,0.2,0.5,0.3,0.6,0.3c0.2,0,0.6-0.2,1.3-0.4c0,0.3-0.1,0.5-0.2,0.6c0.6,0.2,0.9,0.5,0.9,0.7V25.7z
		 M216.5,44.3l-0.1-0.1l-0.7,0.5l0.1,0.1L216.5,44.3z M216.4,49.8h-0.3c-0.2,0.3-0.3,0.5-0.5,0.6C215.8,50.3,216,50.1,216.4,49.8z
		 M216.1,51.3l-0.1-0.1l-0.2,0.3l0.1,0.1L216.1,51.3z M216.3,51.2l-0.1-0.1l-0.2,0.1v0.1L216.3,51.2z M216.8,48.6v-0.2h-0.5v0.2
		H216.8z M224.8,43.4c0-0.2-0.1-0.3-0.4-0.3c0.1,0.1,0.2,0.2,0.1,0.4l-0.7,0.7l-0.2-0.2c0,0-0.1,0.1-0.2,0.3
		c-0.1,0.1-0.2,0.2-0.2,0.3c0.1,0.1,0.2,0.2,0.4,0.3c0.1,0.2-0.4,0.6-1.3,1.1c0-0.2,0.1-0.5,0.4-0.9l0.4-0.6
		c-0.2,0.1-0.4,0.2-0.7,0.2c-0.4,0.7-0.9,1.1-1.5,1.3c0.1,0,0.1,0,0.1,0.1c-0.7,0.5-1.6,1.3-2.8,2.3c0-0.1-0.1-0.1-0.2-0.1
		c0.1,0,0,0.2-0.2,0.5c0,0,0.1-0.1,0.1-0.3c-0.2,0-0.5,0.2-0.7,0.5c0.1,0.1,0.3,0.3,0.5,0.5c1.7-1.4,3-2.5,4.1-3.3
		c0,0,0.1,0.1,0.2,0.2c-0.5,0.5-1.2,1.1-2.1,2c-0.5,0.2-1.6,1.1-3.3,2.5c0.2-0.1,0.4-0.1,0.6-0.1c0.2-0.2,0.9-0.8,2.1-1.8
		c0,0,0,0.1,0,0.1c0,0,0,0.1,0.1,0.1c0.1,0,0.2-0.1,0.3-0.2c-0.1,0-0.2,0-0.3-0.1l0.2-0.3c0.1,0.1,0.1,0.2,0.1,0.3
		c0.5-0.3,1.3-0.9,2.2-1.7c-0.1-0.1-0.1-0.2-0.1-0.2c0-0.1,0.1-0.2,0.3-0.4c0.1,0.1,0.1,0.1,0.1,0.2c-0.1,0.1-0.2,0.2-0.2,0.3
		c0.4-0.3,0.9-0.8,1.7-1.4c0.2-0.7,0.5-1.1,1-1.3C224.7,43.4,224.8,43.1,224.8,43.4z M218.3,19.9c0,0.2,0,0.3-0.1,0.5h-0.7
		c-0.2,0-0.4-0.3-0.6-0.9c0.2,0.1,0.6,0.1,1.2,0.1C218.2,19.7,218.3,19.8,218.3,19.9z M218.8,44.2l-0.1-0.1l-0.2,0.3l0.1,0.1
		L218.8,44.2z M219.1,43.9v-0.3h-0.2v0.3H219.1z M220.7,45.5l-0.1-0.1l-0.3,0.2l0.1,0.1L220.7,45.5z M222,45.1l-0.3,0.1v-0.1
		l0.2-0.2L222,45.1z M222.6,32.4h-0.2v-0.2h0.2V32.4z M222.7,44.5l-0.3,0.1v-0.2l0.2-0.1L222.7,44.5z M223.9,44l-0.2-0.1l-0.1,0.1
		l0.2,0.2L223.9,44z M226.5,35.5c0.1-0.1,0-0.4-0.3-0.9h-0.3v0.5C225.9,35.2,226.1,35.3,226.5,35.5z M228.1,30.6
		c-0.1-0.1-0.3,0-0.5,0.3c-0.2,0-0.4-0.1-0.7-0.2c0,0.1-0.1-0.1-0.1-0.7c0-0.3,0.2-0.5,0.5-0.7c0.2,0.2,0.4,0.4,0.7,0.7V30.6z
		 M227.1,38.5H227l-0.1-0.2l0.1-0.1L227.1,38.5z M227.8,27.6c-0.3,0-0.4,0-0.4,0.1c-0.1-0.1-0.2-0.2-0.2-0.4l0.4,0.1
		c0.1,0,0.1-0.1,0.2-0.2V27.6z M231.4,31.4c0,0.1-0.2,0.6-0.6,1.3l-0.2-0.1c-0.1,0-0.2-0.1-0.3-0.1c-0.1,0-0.1,0-0.2,0.1l-0.1,0.1
		c-0.2-0.2-0.3-0.3-0.6-0.3c-0.5,0-0.9,0.4-1.3,1.1c-0.7,0-1-0.3-1-0.7c0-0.1,0.2-0.3,0.3-0.5l0.2-0.1c0.8-0.3,1.4-0.7,1.7-1.2
		c0,0,0.2-0.1,0.5-0.2c0.3-0.1,0.5-0.2,0.6-0.2C231.1,30.7,231.4,30.9,231.4,31.4z M227.7,39.6l-0.1-0.1l-0.1,0.1l0.2,0.2
		L227.7,39.6z M228.2,39.3l-0.2,0.2l-0.1-0.1l0.2-0.2L228.2,39.3z M228.8,39.5c-0.2,0-0.2,0-0.3,0.1c0.2,0.2,0.2,0.2,0,0.2
		c0-0.2-0.1-0.2-0.2-0.2v-0.5C228.5,39.2,228.6,39.3,228.8,39.5z"/>
</g>
</svg>
